<svg width="19" height="22" viewBox="0 0 19 22" fill="none" xmlns="http://www.w3.org/2000/svg">
<path fill-rule="evenodd" clip-rule="evenodd" d="M13.025 3.51267C13.795 2.58317 14.312 1.28792 14.1708 0C13.0635 0.0449167 11.7233 0.737917 10.9304 1.66742C10.2182 2.49058 9.59482 3.80783 9.76348 5.07008C10.9973 5.16633 12.2587 4.44308 13.0268 3.51267H13.025ZM15.7952 11.6875C15.8263 15.0168 18.7157 16.1251 18.7468 16.1397C18.7239 16.2177 18.2866 17.7183 17.2252 19.2683C16.3085 20.6085 15.357 21.9441 13.8573 21.9716C12.3842 21.9982 11.9112 21.098 10.2264 21.098C8.5434 21.098 8.01723 21.9441 6.62207 21.9982C5.17557 22.0532 4.07373 20.5489 3.1479 19.2142C1.25957 16.4826 -0.184183 11.4959 1.75457 8.12992C2.71615 6.45792 4.43765 5.39917 6.30582 5.37258C7.72665 5.34508 9.06773 6.32867 9.93582 6.32867C10.8048 6.32867 12.4347 5.14617 14.1479 5.31942C14.8657 5.34967 16.8787 5.60908 18.1721 7.502C18.0676 7.56617 15.7695 8.9045 15.7942 11.6875" fill="#332218"/>
</svg>
