<svg width="17" height="17" viewBox="0 0 17 17" fill="none" xmlns="http://www.w3.org/2000/svg">
<path d="M4.25 3.33932V13.9643L8.19643 11.5357L12.75 13.9643V3.33932L11.2321 2.73218L4.25 3.33932Z" fill="white"/>
<path d="M4.26006 14.8819C4.07221 14.8803 3.89268 14.8042 3.76096 14.6702C3.62924 14.5363 3.55613 14.3555 3.55771 14.1676L3.53877 3.78296C3.53202 3.57206 3.56702 3.3619 3.64178 3.16457C3.71653 2.96724 3.82956 2.78665 3.97437 2.63316C4.11917 2.47967 4.29289 2.35633 4.48553 2.27022C4.67818 2.18411 4.88594 2.13694 5.09688 2.13142L11.8899 2.15311C12.101 2.15858 12.309 2.20558 12.5019 2.29144C12.6949 2.37729 12.869 2.50032 13.0144 2.6535C13.1598 2.80667 13.2736 2.98699 13.3493 3.18415C13.425 3.38132 13.4612 3.59146 13.4556 3.80259L13.4675 14.1872C13.4677 14.3113 13.4352 14.4333 13.3734 14.541C13.3116 14.6486 13.2225 14.7381 13.1152 14.8005C13.007 14.8618 12.8846 14.8935 12.7603 14.8924C12.6359 14.8914 12.5141 14.8576 12.4069 14.7946L8.38838 12.5224L4.6222 14.7787C4.51072 14.8397 4.38697 14.875 4.26006 14.8819V14.8819ZM8.37297 10.9851C8.49605 10.9864 8.61711 11.0165 8.72641 11.0731L12.047 12.9498L12.0391 3.77651C12.0403 3.63485 11.9491 3.53491 11.8923 3.54152L5.09205 3.54809C5.03539 3.54762 4.9567 3.63904 4.95551 3.7807L4.96368 12.9186L8.0109 11.0812C8.12153 11.0191 8.2461 10.986 8.37297 10.9851V10.9851Z" fill="white"/>
</svg>
