<svg width="12" height="13" viewBox="0 0 12 13" fill="none" xmlns="http://www.w3.org/2000/svg">
<path d="M7.44766 2.42744L7.39462 2.3744L7.34159 2.42744L6.80197 2.96706L6.74892 3.02011L6.80198 3.07314L9.03 5.30009H4.125C2.63795 5.30009 1.425 6.51305 1.425 8.00009C1.425 9.48714 2.63795 10.7001 4.125 10.7001H4.2V10.6251V9.87509V9.80009H4.125C3.12655 9.80009 2.325 8.99855 2.325 8.00009C2.325 7.00164 3.12655 6.20009 4.125 6.20009H9.03004L6.80235 8.42743L6.7493 8.48046L6.80234 8.5335L7.34159 9.07275L7.39462 9.12578L7.44766 9.07275L10.4477 6.07275L10.4477 6.07277L10.4489 6.07153L10.7065 5.80191L10.756 5.75009L10.7065 5.69828L10.4489 5.42866L10.4489 5.42864L10.4477 5.42744L7.44766 2.42744Z" fill="white" stroke="white" stroke-width="0.15"/>
</svg>
